 <svg width="1300px" height="799px" viewBox="0 0 1242 697" fill="none" xmlns="http://www.w3.org/2000/svg">
    <g clip-path="url(#clip0)">
    <rect y="690.699" width="1242" height="6" rx="3" fill="#004798"/>
    <path d="M1099.89 681.206C1071.49 694.184 1039.51 690.476 1024.56 690.476H114.655C87.539 690.476 60.3067 672.283 53.122 645.63C42.8084 607.852 71.779 584.328 103.531 572.392C113.497 568.568 121.492 563.469 127.75 557.096C158.575 525.692 150.231 464.042 150.927 386.633C151.506 315.018 159.849 229.96 213.851 142.469C284.539 27.9777 396.365 -6.09171 509.118 0.861222C538.784 2.71534 674.482 51.0382 755.368 128.216C872.872 240.39 984.815 225.789 1068.95 324.173C1087.14 345.379 1128.97 406.217 1142.53 478.759C1167.68 614.341 1139.05 663.244 1099.89 681.206Z" fill="#D9F2FF"/>
    <path opacity="0.45" d="M1122.48 415.372C1054.81 511.67 942.866 574.594 816.206 574.594C609.588 574.594 442.139 407.144 442.139 200.642C442.139 126.941 463.461 58.1071 500.312 0.166016C503.209 0.281898 506.106 0.397782 509.003 0.629546C520.475 1.32484 547.707 8.97306 581.545 22.5313C543.999 72.013 521.634 133.662 521.634 200.642C521.634 363.341 653.508 495.215 816.206 495.215C928.96 495.215 1027 431.827 1076.48 338.774C1090.62 355.229 1103.25 373.886 1114.02 395.556C1116.92 402.045 1119.82 408.651 1122.48 415.372Z" fill="white"/>
    <path opacity="0.6" d="M1076.48 338.774C1027 431.827 928.96 495.215 816.206 495.215C653.508 495.215 521.634 363.341 521.634 200.642C521.634 133.778 543.999 72.0129 581.545 22.5312C635.314 44.0853 705.539 80.5882 755.252 127.984C809.253 179.552 862.211 202.264 911.693 221.385C973.458 256.266 1032.21 286.974 1076.48 338.774Z" fill="white"/>
    <path opacity="0.6" d="M1099.77 681.205C1071.38 694.184 1039.4 690.476 1024.56 690.476H114.655C87.539 690.476 60.3067 672.282 53.122 645.629C42.8084 607.852 71.779 584.328 103.531 572.392C113.497 568.568 121.492 563.469 127.75 557.096C158.575 525.691 150.231 464.042 150.927 386.633C163.905 478.759 193.687 576.448 260.319 607.968C397.408 672.514 411.546 607.968 622.567 647.368C788.626 678.076 998.721 702.296 1099.77 681.205Z" fill="#B3DAF2"/>
    <path opacity="0.6" d="M330.218 483.741H184.894C180.277 483.741 176.632 479.563 176.632 474.271V383.47C176.632 378.178 180.277 374 184.894 374H330.218C334.835 374 338.481 378.178 338.481 383.47V474.271C338.481 479.563 334.714 483.741 330.218 483.741Z" fill="url(#paint0_linear)"/>
    <path d="M340.062 494.024H173.472C168.179 494.024 164 489.845 164 484.552V393.735C164 388.442 168.179 384.264 173.472 384.264H340.062C345.355 384.264 349.534 388.442 349.534 393.735V484.552C349.534 489.845 345.216 494.024 340.062 494.024Z" fill="url(#paint1_linear)"/>
    <path d="M243.395 405.019H186.565C184.475 405.019 182.804 403.347 182.804 401.258C182.804 399.169 184.475 397.497 186.565 397.497H243.395C245.484 397.497 247.156 399.169 247.156 401.258C247.295 403.347 245.484 405.019 243.395 405.019Z" fill="#004798"/>
    <path d="M326.83 405.019H309.837C307.748 405.019 306.076 403.347 306.076 401.258C306.076 399.169 307.748 397.497 309.837 397.497H326.83C328.92 397.497 330.591 399.169 330.591 401.258C330.591 403.347 328.92 405.019 326.83 405.019Z" fill="#004798"/>
    <path d="M188.654 444.578C185.451 444.578 182.943 447.224 182.943 450.288V480.793H194.504V450.288C194.365 447.085 191.858 444.578 188.654 444.578Z" fill="#004798"/>
    <path d="M205.091 431.346C201.887 431.346 199.38 433.992 199.38 437.057V480.794H210.941V437.057C210.941 433.853 208.294 431.346 205.091 431.346Z" fill="#BED0E3"/>
    <path d="M221.666 423.127C218.462 423.127 215.955 425.773 215.955 428.838V480.793H227.516V428.838C227.377 425.634 224.73 423.127 221.666 423.127Z" fill="#009AFF"/>
    <path d="M273.343 431.346C270.139 431.346 267.632 433.992 267.632 437.057V480.794H279.193V437.057C279.054 433.853 276.407 431.346 273.343 431.346Z" fill="#009AFF"/>
    <path d="M289.779 423.127C286.576 423.127 284.068 425.773 284.068 428.838V480.793H295.629V428.838C295.49 425.634 292.983 423.127 289.779 423.127Z" fill="#BED0E3"/>
    <path d="M307.329 431.346C304.125 431.346 301.618 433.992 301.618 437.057V480.794H313.179V437.057C313.179 433.853 310.533 431.346 307.329 431.346Z" fill="#004798"/>
    <path d="M323.904 423.127C320.701 423.127 318.193 425.773 318.193 428.838V480.793H329.754V428.838C329.615 425.634 326.969 423.127 323.904 423.127Z" fill="#009AFF"/>
    <path d="M238.659 461.848C235.455 461.848 232.948 464.495 232.948 467.559V480.791H244.509V467.559C244.37 464.355 241.863 461.848 238.659 461.848Z" fill="#004798"/>
    <path d="M255.652 471.319C252.449 471.319 249.941 473.966 249.941 477.03V480.791H261.502V477.03C261.502 473.826 258.856 471.319 255.652 471.319Z" fill="#BED0E3"/>
    <path d="M217.832 626.943C217.832 626.943 217.732 626.943 217.832 626.943C217.132 626.943 216.632 626.343 216.632 625.743C216.632 625.243 219.432 571.543 216.632 543.043C216.532 542.443 217.032 541.843 217.732 541.743C218.432 541.643 218.932 542.143 219.032 542.843C221.832 571.543 219.032 625.343 219.032 625.943C218.932 626.443 218.432 626.943 217.832 626.943Z" fill="#2A7C61"/>
    <path d="M217.931 622.143C217.931 622.143 217.531 618.543 218.331 613.043C219.231 606.743 221.631 598.043 227.931 589.243C238.731 574.143 257.431 561.943 260.431 560.043C260.731 559.843 260.831 559.743 260.831 559.743C260.831 559.743 263.431 618.543 217.931 622.143Z" fill="#54AB92"/>
    <path d="M256.631 589.243C251.631 604.443 240.931 620.343 218.031 622.143C218.031 622.143 217.831 619.943 218.031 616.343C218.131 615.343 218.231 614.243 218.431 613.043C219.031 611.843 219.731 610.743 220.531 609.543C230.031 595.943 240.931 579.643 239.531 585.043C238.131 590.443 225.931 606.743 242.231 590.443C254.131 578.543 258.831 565.843 260.431 559.943C260.731 559.743 260.831 559.643 260.831 559.643C260.831 559.643 261.531 574.243 256.631 589.243Z" fill="#3D9177"/>
    <path d="M256.631 589.243C251.631 604.443 240.931 620.343 218.031 622.143C218.031 622.143 217.831 619.943 218.031 616.343C223.631 614.143 228.131 611.043 230.531 609.143C230.031 609.643 229.431 610.243 228.631 610.943C219.131 620.443 230.031 616.343 246.331 602.743C250.631 599.243 254.031 594.443 256.631 589.243Z" fill="#2A7C61"/>
    <path d="M217.931 613.043C217.831 614.043 217.831 614.643 217.831 614.643C163.631 603.243 157.931 554.643 157.331 547.743C157.331 547.143 157.231 546.943 157.231 546.943C157.231 546.943 167.831 544.543 194.931 562.243C218.531 577.543 218.431 606.043 217.931 613.043Z" fill="#54AB92"/>
    <path d="M217.932 613.043C217.832 614.043 217.832 614.643 217.832 614.643C217.332 614.543 216.932 614.443 216.432 614.343C188.232 607.943 173.432 591.343 165.732 576.243C159.032 563.043 157.632 550.943 157.432 547.743C163.532 554.743 173.132 565.543 185.232 578.443C206.932 601.543 185.232 577.043 181.132 568.943C177.032 560.743 197.432 582.543 206.932 597.443C210.932 603.843 214.832 609.043 217.932 613.043Z" fill="#3D9177"/>
    <path d="M216.431 614.343C188.231 607.943 173.431 591.343 165.731 576.243C170.731 582.343 176.831 588.443 183.831 593.343C205.531 608.343 197.431 600.143 190.631 591.943C183.831 583.743 197.431 600.143 209.631 608.243C212.431 610.143 214.831 612.343 216.431 614.343Z" fill="#2A7C61"/>
    <path d="M219.632 559.843C167.732 529.243 180.832 457.443 180.832 457.443C180.832 457.443 180.932 457.443 181.032 457.543C183.132 458.743 198.232 467.643 210.232 493.943C223.232 522.143 219.632 559.843 219.632 559.843Z" fill="#54AB92"/>
    <path d="M219.631 559.843C208.331 553.243 200.131 544.643 194.231 535.243C172.831 501.443 180.831 457.443 180.831 457.443C180.831 457.443 180.931 457.443 181.031 457.543C182.131 459.543 183.531 462.543 185.131 466.943C189.631 479.243 195.031 509.243 196.031 514.743C196.031 514.643 196.031 514.643 196.031 514.543C194.631 506.343 190.631 476.443 200.131 506.343C205.331 522.643 210.631 537.143 214.431 546.843C217.431 554.643 219.431 559.443 219.631 559.843Z" fill="#3D9177"/>
    <path d="M219.631 559.843C208.331 553.243 200.131 544.643 194.231 535.243C198.231 539.343 200.531 541.143 198.731 537.643C194.631 529.443 194.631 519.943 204.131 534.943C207.231 539.743 210.831 543.743 214.331 546.943C217.431 554.643 219.431 559.443 219.631 559.843Z" fill="#2A7C61"/>
    <path d="M230.531 609.143C233.231 606.543 232.931 607.243 230.531 609.143V609.143Z" fill="#2A7C61"/>
    <path d="M248.731 625.743L246.131 638.143L235.031 690.543H198.531L196.031 678.943L187.331 638.143L184.731 625.743H248.731Z" fill="#009AFF"/>
    <path d="M248.732 625.743L248.032 628.943L246.032 638.143L235.032 690.543H198.532L197.832 687.143L196.132 678.943H206.332C213.432 678.943 219.232 673.143 219.232 666.043V631.343L227.432 625.743H248.732Z" fill="#1883CA"/>
    <path d="M248.031 628.943L246.031 638.143L235.031 690.543H198.531L197.831 687.143H220.331C227.231 687.143 232.731 681.543 232.731 674.743V634.143C232.731 634.043 244.831 629.743 248.031 628.943Z" fill="#004798"/>
    <path d="M248.731 625.743L247.231 632.743L246.131 638.143H187.331L186.231 632.743L184.731 625.743H248.731Z" fill="#004798"/>
    <path d="M247.231 632.743L246.131 638.143H187.331L186.231 632.743H247.231Z" fill="#1662B9"/>
    <path d="M1183.53 429.842C1183.53 432.942 1181.33 435.542 1178.33 436.142C1179.03 435.142 1179.43 433.842 1179.43 432.542C1179.43 429.042 1176.53 426.142 1173.03 426.142H1126.43V423.742C1126.43 423.542 1126.53 423.442 1126.73 423.442H1177.13C1180.73 423.442 1183.53 426.342 1183.53 429.842Z" fill="#8248F7"/>
    <path d="M1179.53 432.642C1179.53 433.942 1179.13 435.242 1178.53 436.242C1178.13 436.342 1177.73 436.342 1177.33 436.342H1128.93C1128.83 436.342 1128.63 436.242 1128.63 436.042V426.242H1173.43C1176.53 426.242 1179.03 428.542 1179.53 431.642C1179.43 431.842 1179.53 432.242 1179.53 432.642Z" fill="white"/>
    <path d="M1179.53 432.642C1179.53 433.942 1179.13 435.242 1178.53 436.242C1178.13 436.342 1177.73 436.342 1177.33 436.342H1170.43C1170.53 436.142 1170.63 435.942 1170.83 435.642C1171.93 433.842 1170.53 431.642 1168.43 431.642H1128.53V426.242H1173.33C1175.43 426.242 1177.23 427.242 1178.33 428.942C1178.93 429.742 1179.23 430.642 1179.43 431.642C1179.43 431.842 1179.53 432.242 1179.53 432.642Z" fill="#ECF0F7"/>
    <path d="M1178.33 428.842H1128.53V426.142H1173.33C1175.33 426.142 1177.23 427.242 1178.33 428.842Z" fill="#D3DEEF"/>
    <path d="M1191.03 443.143H1181.53V690.543H1191.03V443.143Z" fill="#4696F1"/>
    <path d="M851.231 443.143H841.731V690.543H851.231V443.143Z" fill="#4696F1"/>
    <path d="M851.231 443.743V541.543L841.731 539.343V443.743H851.231Z" fill="#2271CB"/>
    <path d="M1191.03 443.743V622.143L1181.53 619.943V443.743H1191.03Z" fill="#2271CB"/>
    <path d="M851.231 445.143V495.743L841.731 495.043V445.143H851.231Z" fill="#004798"/>
    <path d="M1191.03 445.143V519.943L1181.53 519.243V445.143H1191.03Z" fill="#004798"/>
    <path d="M1210.73 443.743C1210.73 445.843 1209.93 447.643 1208.53 449.043C1207.23 450.343 1205.33 451.243 1203.23 451.243H829.432C825.732 451.243 822.732 448.643 822.032 445.143C821.932 444.743 821.932 444.243 821.932 443.743C821.932 441.643 822.732 439.843 824.132 438.443C825.432 437.143 827.332 436.243 829.432 436.243H1203.23C1207.43 436.343 1210.73 439.643 1210.73 443.743Z" fill="#4696F1"/>
    <path d="M1210.73 443.743C1210.73 445.843 1209.93 447.643 1208.53 449.043C1207.23 450.343 1205.33 451.243 1203.23 451.243H829.431C825.731 451.243 822.731 448.643 822.031 445.143H988.531C1009.73 445.143 1026.33 441.043 1038.43 436.343H1203.33C1207.43 436.343 1210.73 439.643 1210.73 443.743Z" fill="#2271CB"/>
    <path d="M1210.73 443.743C1210.73 445.843 1209.93 447.643 1208.53 449.043C1207.23 450.343 1205.33 451.243 1203.23 451.243H1069.53C1083.13 445.243 1089.63 440.043 1092.83 436.243H1203.23C1207.43 436.343 1210.73 439.643 1210.73 443.743Z" fill="#004798"/>
    <path d="M941.5 429.8H1105.3C1105.3 433.4 1102.4 436.3 1098.8 436.3H935C935 432.7 937.9 429.8 941.5 429.8Z" fill="#093864"/>
    <path d="M1105.3 429.8H1044.8C1043 429.8 1041.6 431.2 1041.6 433C1041.6 434.8 1043 436.2 1044.8 436.2H1098.8C1102.4 436.3 1105.3 433.4 1105.3 429.8Z" fill="#5193D1"/>
    <path d="M1026.7 349.2H1131.4C1134.5 349.2 1136.6 352.4 1135.5 355.2L1105.4 429.8H988L1018.3 354.8C1019.7 351.4 1023 349.2 1026.7 349.2Z" fill="#054C90"/>
    <path d="M995 425.1L1022.6 356.8H1129.7L1102.1 425.1H995Z" fill="#009AFF"/>
    <path opacity="0.5" d="M1075.09 393.154L928.975 395.067C927.312 395.089 926.436 393.868 926.989 392.3L963.763 287.991C964.316 286.423 966.064 285.168 967.727 285.147L1113.84 283.234C1115.5 283.212 1116.38 284.433 1115.83 286.001L1079.05 390.309C1078.51 391.836 1076.75 393.132 1075.09 393.154Z" fill="url(#paint2_linear)"/>
    <path d="M1072.48 389.926L933.319 391.748C931.656 391.77 930.78 390.549 931.333 388.981L966.332 289.706C966.885 288.138 968.634 286.883 970.296 286.861L1109.45 285.04C1111.12 285.018 1111.99 286.239 1111.44 287.807L1076.44 387.081C1075.9 388.608 1074.14 389.904 1072.48 389.926Z" fill="url(#paint3_linear)"/>
    <path d="M1025.73 296.732L978.748 297.347C977.917 297.358 977.479 296.747 977.755 295.964C978.032 295.18 978.906 294.552 979.737 294.541L1026.72 293.926C1027.55 293.915 1027.99 294.526 1027.71 295.31C1027.44 296.093 1026.56 296.721 1025.73 296.732Z" fill="#364089"/>
    <path d="M1094.11 295.836L1065.59 296.209C1064.75 296.22 1064.32 295.61 1064.59 294.826C1064.87 294.042 1065.74 293.414 1066.57 293.403L1095.1 293.03C1095.93 293.019 1096.37 293.629 1096.09 294.413C1095.81 295.197 1094.94 295.825 1094.11 295.836Z" fill="#364089"/>
    <path d="M1092.33 300.871L1063.81 301.244C1062.98 301.255 1062.54 300.645 1062.82 299.861C1063.09 299.077 1063.97 298.449 1064.8 298.439L1093.32 298.065C1094.15 298.054 1094.59 298.665 1094.32 299.449C1094.04 300.233 1093.16 300.86 1092.33 300.871Z" fill="#80A7F8"/>
    <path d="M1040.99 302.117L976.77 302.958C975.939 302.969 975.501 302.358 975.777 301.574C976.053 300.79 976.928 300.163 977.759 300.152L1041.98 299.311C1042.81 299.3 1043.25 299.911 1042.97 300.695C1042.7 301.479 1041.82 302.106 1040.99 302.117Z" fill="#80A7F8"/>
    <path d="M983.322 309.567L982.537 311.796C986.955 311.738 989.393 315.074 987.91 319.282C986.44 323.45 981.646 326.921 977.184 326.98L976.398 329.208C982.129 329.133 988.366 324.657 990.272 319.251C992.177 313.846 989.053 309.492 983.322 309.567Z" fill="#009AFF"/>
    <path d="M983.322 309.568L982.537 311.796C980.524 311.822 978.396 312.548 976.574 313.763L975.596 312.092C977.957 310.583 980.698 309.602 983.322 309.568Z" fill="#364089"/>
    <path d="M977.184 326.979L976.399 329.207C970.668 329.282 967.543 324.929 969.449 319.523C970.482 316.594 972.769 313.935 975.596 312.091L976.575 313.762C974.418 315.187 972.655 317.222 971.855 319.492C970.342 323.66 972.766 327.037 977.184 326.979Z" fill="#80A7F8"/>
    <path d="M1011.35 311.459L1000.07 311.607C999.409 311.616 999.059 311.127 999.277 310.508C999.495 309.889 1000.19 309.387 1000.85 309.379L1012.14 309.231C1012.79 309.222 1013.14 309.711 1012.93 310.33C1012.72 310.907 1012.01 311.451 1011.35 311.459Z" fill="#364089"/>
    <path d="M1021.29 316.874L998.102 317.178C997.446 317.186 997.095 316.698 997.313 316.079C997.531 315.46 998.231 314.958 998.887 314.95L1022.07 314.646C1022.73 314.638 1023.08 315.126 1022.86 315.745C1022.64 316.364 1021.94 316.866 1021.29 316.874Z" fill="#80A7F8"/>
    <path d="M1011 322.594L996.123 322.789C995.467 322.797 995.117 322.309 995.335 321.69C995.553 321.071 996.253 320.569 996.909 320.561L1011.78 320.366C1012.44 320.357 1012.79 320.846 1012.57 321.465C1012.35 322.083 1011.65 322.585 1011 322.594Z" fill="#80A7F8"/>
    <path d="M951.36 379.231L964.22 342.756C964.438 342.137 964.087 341.649 963.431 341.658C962.775 341.666 962.075 342.168 961.857 342.787L948.998 379.262L948.213 381.49L950.575 381.459L1062.35 379.996C1063 379.988 1063.7 379.486 1063.92 378.867C1064.14 378.248 1063.79 377.76 1063.13 377.768L951.36 379.231Z" fill="#80A7F8"/>
    <path d="M1058.15 296.306C1059.14 296.293 1060.21 295.525 1060.54 294.591C1060.87 293.657 1060.33 292.91 1059.34 292.923C1058.35 292.936 1057.28 293.704 1056.95 294.638C1056.62 295.572 1057.16 296.319 1058.15 296.306Z" fill="#364089"/>
    <path d="M1056.36 301.383C1057.35 301.37 1058.42 300.602 1058.75 299.668C1059.08 298.733 1058.54 297.987 1057.55 298C1056.56 298.013 1055.49 298.78 1055.16 299.715C1054.83 300.649 1055.37 301.396 1056.36 301.383Z" fill="#80A7F8"/>
    <path d="M976.876 324.888L977.298 323.692C976.394 323.662 975.592 323.468 975.213 323.185L976.13 321.695C976.597 321.976 977.282 322.254 978.157 322.243C978.945 322.233 979.572 321.937 979.746 321.442C979.921 320.947 979.585 320.664 978.695 320.347C977.412 319.912 976.638 319.265 977.06 318.068C977.453 316.954 978.59 316.077 980.135 315.769L980.557 314.572L981.869 314.555L981.476 315.669C982.381 315.698 982.935 315.856 983.3 316.056L982.397 317.505C982.09 317.386 981.58 317.105 980.617 317.118C979.742 317.129 979.305 317.505 979.189 317.835C979.043 318.247 979.423 318.53 980.415 318.928C981.844 319.443 982.253 320.136 981.846 321.291C981.453 322.405 980.273 323.406 978.611 323.675L978.16 324.954L976.847 324.971L976.876 324.888Z" fill="#009AFF"/>
    <path d="M962.342 363.152C961.904 363.157 961.554 363.039 961.248 362.796C960.547 362.189 960.765 360.954 961.77 360.079L969.304 353.286C972.859 350.118 977.378 348.292 981.432 348.404C985.471 348.556 988.448 350.612 989.37 353.926C989.926 356.055 991.72 357.387 994.272 357.559C996.824 357.731 999.653 356.749 1002.01 354.87L1025.46 336.163C1028.9 333.448 1032.97 331.917 1036.7 332.073C1040.4 332.189 1043.23 333.918 1044.34 336.819L1049.87 350.547C1050.66 352.508 1052.6 353.674 1055.17 353.681C1055.21 353.681 1055.25 353.68 1055.3 353.679C1057.83 353.646 1060.53 352.543 1062.79 350.583L1112.38 307.261C1113.38 306.386 1114.75 306.204 1115.44 306.852C1116.12 307.5 1115.86 308.735 1114.86 309.611L1065.27 352.933C1061.86 355.935 1057.65 357.633 1053.72 357.643C1049.8 357.653 1046.88 355.925 1045.69 352.902L1040.22 339.132C1039.46 337.212 1037.64 336.086 1035.19 335.995C1032.74 335.904 1030.04 336.884 1027.78 338.72L1004.33 357.427C1000.71 360.308 996.434 361.802 992.57 361.524C988.705 361.246 986.02 359.227 985.157 355.994C984.543 353.784 982.631 352.413 979.919 352.325C977.206 352.237 974.276 353.385 971.901 355.552L964.368 362.345C963.741 362.887 962.998 363.143 962.342 363.152Z" fill="#009AFF"/>
    <path d="M1106.34 304.877L1106.73 305.365L1115.82 316.499L1125.92 299.61L1106.34 304.877Z" fill="#009AFF"/>
    </g>
    <defs>
    <linearGradient id="paint0_linear" x1="240.212" y1="341.783" x2="288.352" y2="526.225" gradientUnits="userSpaceOnUse">
    <stop stop-color="#F9FDFF"/>
    <stop offset="1" stop-color="#D9F2FF"/>
    </linearGradient>
    <linearGradient id="paint1_linear" x1="236.885" y1="352.041" x2="279.543" y2="539.367" gradientUnits="userSpaceOnUse">
    <stop stop-color="#F9FDFF"/>
    <stop offset="1" stop-color="#D9F2FF"/>
    </linearGradient>
    <linearGradient id="paint2_linear" x1="1035.86" y1="252.134" x2="1080.2" y2="419.241" gradientUnits="userSpaceOnUse">
    <stop stop-color="#F9FDFF"/>
    <stop offset="1" stop-color="#D9F2FF"/>
    </linearGradient>
    <linearGradient id="paint3_linear" x1="1035.18" y1="255.362" x2="1077.48" y2="414.819" gradientUnits="userSpaceOnUse">
    <stop stop-color="#F9FDFF"/>
    <stop offset="1" stop-color="#D9F2FF"/>
    </linearGradient>
    <clipPath id="clip0">
    <rect width="1242" height="696.699" fill="white"/>
    </clipPath>
    </defs>
    </svg>
